<svg width="20" height="20" viewBox="0 0 20 20" fill="none" xmlns="http://www.w3.org/2000/svg">
<path d="M2.672 15.7776C2.71497 15.7776 2.75403 15.7737 2.797 15.7618L7.96106 14.3329C8.03919 14.3092 8.1095 14.2697 8.16809 14.2105L16.4923 5.79867C17.1993 5.0842 17.1993 3.91973 16.4923 3.20525L14.6486 1.33815C13.9415 0.623673 12.7892 0.623673 12.0822 1.33815L3.75794 9.74999C3.69934 9.8092 3.66028 9.88025 3.63684 9.9592L2.22278 15.1816C2.17981 15.3474 2.22278 15.521 2.34387 15.6434C2.42981 15.7303 2.55091 15.7776 2.672 15.7776ZM4.75794 10.0816L10.7618 4.01446L13.8478 7.13288L7.84387 13.2L4.75794 10.0816ZM12.7462 2.0092C13.09 1.66183 13.6447 1.66183 13.9884 2.0092L15.8322 3.87236C16.1759 4.21973 16.1759 4.78025 15.8322 5.12762L14.5118 6.46183L11.4259 3.34341L12.7462 2.0092ZM4.32825 10.9895L6.94153 13.6303L3.33997 14.6289L4.32825 10.9895Z" fill="#9847EA"/>
<path d="M17.6602 18.4737H2.33984C2.08203 18.4737 1.87109 18.6868 1.87109 18.9473C1.87109 19.2079 2.08203 19.421 2.33984 19.421H17.6602C17.918 19.421 18.1289 19.2079 18.1289 18.9473C18.1289 18.6868 17.918 18.4737 17.6602 18.4737Z" fill="#9847EA"/>
</svg>
