<svg width="24" height="24" viewBox="0 0 24 24" fill="none" xmlns="http://www.w3.org/2000/svg">
<path d="M10.125 18.75C9.4875 18.75 9 18.2625 9 17.625V9.375C9 8.7375 9.4875 8.25 10.125 8.25C10.7625 8.25 11.25 8.7375 11.25 9.375V17.625C11.25 18.2625 10.7625 18.75 10.125 18.75Z" fill="#DE4040"/>
<path d="M13.875 18.75C13.2375 18.75 12.75 18.2625 12.75 17.625V9.375C12.75 8.7375 13.2375 8.25 13.875 8.25C14.5125 8.25 15 8.7375 15 9.375V17.625C15 18.2625 14.5125 18.75 13.875 18.75Z" fill="#DE4040"/>
<path d="M19.5 4.875H4.5C3.8625 4.875 3.375 5.3625 3.375 6C3.375 6.6375 3.8625 7.125 4.5 7.125H4.875L5.55 20.4375C5.5875 21.375 6.375 22.125 7.275 22.125H16.6875C17.625 22.125 18.375 21.375 18.4125 20.4375L19.125 7.125H19.5C20.1375 7.125 20.625 6.6375 20.625 6C20.625 5.3625 20.1375 4.875 19.5 4.875ZM16.2 19.875H7.8L7.1625 7.125H16.875L16.2 19.875Z" fill="#DE4040"/>
<path d="M14.625 4.125H9.375C8.7375 4.125 8.25 3.6375 8.25 3C8.25 2.3625 8.7375 1.875 9.375 1.875H14.625C15.2625 1.875 15.75 2.3625 15.75 3C15.75 3.6375 15.2625 4.125 14.625 4.125Z" fill="#DE4040"/>
</svg>
